<svg width="24" height="15" viewBox="0 0 24 15" fill="none" xmlns="http://www.w3.org/2000/svg">
<path d="M8.23738 6.94569L8.80862 6.37445L8.23738 5.80321L7.66614 6.37445L8.23738 6.94569ZM12.4135 11.1218L11.8422 11.693L12.4029 12.2537L12.9739 11.7035L12.4135 11.1218ZM23.6514 0.0409241L14.6511 2.49308L21.2749 9.06144L23.6514 0.0409241ZM18.0077 5.73216L18.5682 6.31395L18.5749 6.30755L18.5814 6.301L18.0077 5.73216ZM1.80757 14.518L8.80862 7.51693L7.66614 6.37445L0.665088 13.3755L1.80757 14.518ZM7.66614 7.51693L11.8422 11.693L12.9847 10.5505L8.80862 6.37445L7.66614 7.51693ZM12.9739 11.7035L18.5682 6.31395L17.4472 5.15038L11.853 10.54L12.9739 11.7035ZM18.5814 6.301L19.1055 5.77246L17.9582 4.63479L17.4341 5.16333L18.5814 6.301Z" fill="#00C48C"/>
</svg>
