<svg width="24" height="15" viewBox="0 0 24 15" fill="none" xmlns="http://www.w3.org/2000/svg">
<path d="M8.23738 8.08905L8.80862 8.66029L8.23738 9.23153L7.66614 8.66029L8.23738 8.08905ZM12.4135 3.91298L11.8422 3.34174L12.4029 2.78105L12.9739 3.3312L12.4135 3.91298ZM18.0077 9.30258L18.5682 8.7208L18.5749 8.72719L18.5814 8.73374L18.0077 9.30258ZM23.6514 14.9938L14.6511 12.5417L21.2749 5.97331L23.6514 14.9938ZM1.80757 0.516763L8.80862 7.51781L7.66614 8.66029L0.665088 1.65924L1.80757 0.516763ZM7.66614 7.51781L11.8422 3.34174L12.9847 4.48422L8.80862 8.66029L7.66614 7.51781ZM12.9739 3.3312L18.5682 8.7208L17.4472 9.88436L11.853 4.49477L12.9739 3.3312ZM18.5814 8.73374L19.1055 9.26228L17.9582 10.4L17.4341 9.87142L18.5814 8.73374Z" fill="#FF3F3F"/>
</svg>
